<svg width="903" height="177" viewBox="0 0 903 177" fill="none" xmlns="http://www.w3.org/2000/svg">
    <circle cx="88.5" cy="88.5" r="88.5" fill="#C4C4C4" />
    <circle class="atom x3" cx="43" cy="52" r="7" fill="#5578D1" fill-opacity="0.7" />
    <circle class="atom x4" cx="123" cy="112" r="7" fill="#5578D1" fill-opacity="0.8" />
    <circle class="atom x4 d1" cx="79.5" cy="70.5" r="11.5" fill="#5578D1" fill-opacity="0.4" />
    <circle class="atom x2" cx="65" cy="119" r="15" fill="#5578D1" fill-opacity="0.9" />
    <circle class="atom x3 d1" cx="123" cy="52" r="15" fill="#5578D1" fill-opacity="0.65" />
    <path
        d="M231.08 45.8H238.16L273.56 131H264.68L253.64 104.36H215.36L204.44 131H195.44L231.08 45.8ZM251.72 97.76L234.56 55.64L217.16 97.76H251.72ZM311.516 128C310.556 128.4 308.796 129.12 306.236 130.16C303.676 131.2 300.716 131.72 297.356 131.72C293.836 131.72 290.756 130.72 288.116 128.72C285.476 126.72 284.156 123.72 284.156 119.72V74.96H275.516V68.48H284.156V47.36H292.316V68.48H306.716V74.96H292.316V117.44C292.476 119.76 293.276 121.48 294.716 122.6C296.236 123.64 297.956 124.16 299.876 124.16C302.116 124.16 304.116 123.8 305.876 123.08C307.716 122.28 308.876 121.72 309.356 121.4L311.516 128ZM347.296 132.2C341.296 132.2 335.936 130.72 331.216 127.76C326.576 124.8 322.936 120.88 320.296 116C317.656 111.04 316.336 105.68 316.336 99.92C316.336 94.08 317.656 88.72 320.296 83.84C323.016 78.88 326.696 74.92 331.336 71.96C336.056 68.92 341.376 67.4 347.296 67.4C353.296 67.4 358.616 68.92 363.256 71.96C367.976 74.92 371.656 78.88 374.296 83.84C377.016 88.72 378.376 94.08 378.376 99.92C378.376 105.68 377.056 111.04 374.416 116C371.776 120.88 368.096 124.8 363.376 127.76C358.736 130.72 353.376 132.2 347.296 132.2ZM324.616 100.04C324.616 104.68 325.616 108.92 327.616 112.76C329.696 116.52 332.456 119.52 335.896 121.76C339.336 123.92 343.136 125 347.296 125C351.456 125 355.256 123.88 358.696 121.64C362.136 119.4 364.896 116.36 366.976 112.52C369.056 108.68 370.096 104.44 370.096 99.8C370.096 95.16 369.056 90.92 366.976 87.08C364.896 83.24 362.136 80.2 358.696 77.96C355.256 75.72 351.456 74.6 347.296 74.6C343.216 74.6 339.456 75.76 336.016 78.08C332.576 80.32 329.816 83.36 327.736 87.2C325.656 91.04 324.616 95.32 324.616 100.04ZM485.023 131H476.863V96.08C476.863 88.88 475.703 83.56 473.383 80.12C471.063 76.6 467.623 74.84 463.063 74.84C458.263 74.84 454.023 76.52 450.343 79.88C446.663 83.24 444.063 87.56 442.543 92.84V131H434.383V96.08C434.383 88.72 433.223 83.36 430.903 80C428.663 76.56 425.263 74.84 420.703 74.84C415.983 74.84 411.743 76.48 407.983 79.76C404.303 83.04 401.703 87.36 400.183 92.72V131H392.023V68.48H399.463V82.64C402.023 77.84 405.383 74.12 409.543 71.48C413.703 68.76 418.303 67.4 423.343 67.4C428.543 67.4 432.743 68.92 435.943 71.96C439.143 74.92 441.103 78.76 441.823 83.48C447.583 72.76 455.623 67.4 465.943 67.4C472.983 67.4 477.903 69.88 480.703 74.84C483.583 79.72 485.023 86.24 485.023 94.4V131ZM502.297 55.4V43.4H510.457V55.4H502.297ZM502.297 131V68.48H510.457V131H502.297ZM555.55 132.2C549.47 132.2 544.07 130.72 539.35 127.76C534.63 124.72 530.91 120.76 528.19 115.88C525.47 110.92 524.11 105.48 524.11 99.56C524.11 93.64 525.43 88.28 528.07 83.48C530.71 78.6 534.39 74.72 539.11 71.84C543.83 68.88 549.27 67.4 555.43 67.4C561.27 67.4 566.39 68.76 570.79 71.48C575.27 74.12 578.63 77.72 580.87 82.28L572.95 84.8C571.19 81.6 568.71 79.12 565.51 77.36C562.39 75.52 558.91 74.6 555.07 74.6C550.83 74.6 546.99 75.68 543.55 77.84C540.19 80 537.47 83 535.39 86.84C533.39 90.6 532.39 94.84 532.39 99.56C532.39 104.28 533.43 108.56 535.51 112.4C537.59 116.24 540.35 119.32 543.79 121.64C547.23 123.88 551.03 125 555.19 125C557.91 125 560.55 124.52 563.11 123.56C565.67 122.6 567.87 121.32 569.71 119.72C571.55 118.04 572.79 116.24 573.43 114.32L581.47 116.72C580.35 119.68 578.51 122.36 575.95 124.76C573.39 127.08 570.35 128.92 566.83 130.28C563.31 131.56 559.55 132.2 555.55 132.2ZM676.355 61.76C673.955 59.12 670.755 56.96 666.755 55.28C662.755 53.52 658.195 52.64 653.075 52.64C645.555 52.64 640.075 54.08 636.635 56.96C633.195 59.76 631.475 63.6 631.475 68.48C631.475 71.84 632.315 74.48 633.995 76.4C635.675 78.32 638.235 79.92 641.675 81.2C645.195 82.4 649.675 83.6 655.115 84.8C661.195 86.08 666.435 87.6 670.835 89.36C675.235 91.12 678.635 93.52 681.035 96.56C683.435 99.52 684.635 103.56 684.635 108.68C684.635 113.88 683.315 118.2 680.675 121.64C678.035 125.08 674.395 127.64 669.755 129.32C665.115 130.92 659.835 131.72 653.915 131.72C640.635 131.72 629.235 127.6 619.715 119.36L623.915 112.52C626.955 115.72 631.115 118.48 636.395 120.8C641.755 123.12 647.675 124.28 654.155 124.28C660.875 124.28 666.155 123.04 669.995 120.56C673.835 118.08 675.755 114.4 675.755 109.52C675.755 106 674.795 103.2 672.875 101.12C670.955 98.96 668.075 97.2 664.235 95.84C660.395 94.48 655.675 93.16 650.075 91.88C644.155 90.52 639.155 89 635.075 87.32C631.075 85.64 628.035 83.44 625.955 80.72C623.875 78 622.835 74.32 622.835 69.68C622.835 64.4 624.115 59.96 626.675 56.36C629.315 52.68 632.915 49.92 637.475 48.08C642.035 46.16 647.275 45.2 653.195 45.2C658.795 45.2 663.835 46.08 668.315 47.84C672.795 49.52 676.835 51.92 680.435 55.04L676.355 61.76ZM726.711 128C725.751 128.4 723.991 129.12 721.431 130.16C718.871 131.2 715.911 131.72 712.551 131.72C709.031 131.72 705.951 130.72 703.311 128.72C700.671 126.72 699.351 123.72 699.351 119.72V74.96H690.711V68.48H699.351V47.36H707.511V68.48H721.911V74.96H707.511V117.44C707.671 119.76 708.471 121.48 709.911 122.6C711.431 123.64 713.151 124.16 715.071 124.16C717.311 124.16 719.311 123.8 721.071 123.08C722.911 122.28 724.071 121.72 724.551 121.4L726.711 128ZM731.866 113C731.866 109.16 732.986 105.84 735.226 103.04C737.466 100.16 740.546 97.92 744.466 96.32C748.466 94.72 753.066 93.92 758.266 93.92C761.306 93.92 764.466 94.2 767.746 94.76C771.026 95.24 773.946 95.92 776.506 96.8V91.52C776.506 86.24 774.946 82.04 771.826 78.92C768.706 75.8 764.386 74.24 758.866 74.24C755.586 74.24 752.306 74.88 749.026 76.16C745.746 77.36 742.346 79.16 738.826 81.56L735.706 75.8C739.786 73 743.786 70.92 747.706 69.56C751.626 68.12 755.626 67.4 759.706 67.4C767.386 67.4 773.466 69.6 777.946 74C782.426 78.4 784.666 84.48 784.666 92.24V121.16C784.666 123.32 785.666 124.44 787.666 124.52V131C785.906 131.24 784.666 131.32 783.946 131.24C781.946 131.16 780.426 130.52 779.386 129.32C778.346 128.12 777.786 126.84 777.706 125.48L777.586 120.92C774.786 124.52 771.146 127.32 766.666 129.32C762.186 131.24 757.626 132.2 752.986 132.2C748.906 132.2 745.266 131.36 742.066 129.68C738.866 127.92 736.346 125.6 734.506 122.72C732.746 119.76 731.866 116.52 731.866 113ZM773.746 117.8C775.586 115.64 776.506 113.64 776.506 111.8V102.68C770.986 100.52 765.226 99.44 759.226 99.44C753.386 99.44 748.666 100.6 745.066 102.92C741.466 105.24 739.666 108.4 739.666 112.4C739.666 115.84 740.986 118.96 743.626 121.76C746.346 124.56 750.106 125.96 754.906 125.96C758.826 125.96 762.466 125.2 765.826 123.68C769.266 122.16 771.906 120.2 773.746 117.8ZM831.828 128C830.868 128.4 829.108 129.12 826.548 130.16C823.988 131.2 821.028 131.72 817.668 131.72C814.148 131.72 811.068 130.72 808.428 128.72C805.788 126.72 804.468 123.72 804.468 119.72V74.96H795.828V68.48H804.468V47.36H812.628V68.48H827.028V74.96H812.628V117.44C812.788 119.76 813.588 121.48 815.028 122.6C816.548 123.64 818.268 124.16 820.188 124.16C822.428 124.16 824.428 123.8 826.188 123.08C828.028 122.28 829.188 121.72 829.668 121.4L831.828 128ZM867.969 132.2C861.969 132.2 856.609 130.72 851.889 127.76C847.169 124.8 843.449 120.84 840.729 115.88C838.009 110.92 836.649 105.48 836.649 99.56C836.649 93.72 837.969 88.36 840.609 83.48C843.329 78.6 847.049 74.72 851.769 71.84C856.489 68.88 861.849 67.4 867.849 67.4C874.009 67.4 879.409 68.88 884.049 71.84C888.689 74.8 892.289 78.72 894.849 83.6C897.489 88.4 898.809 93.68 898.809 99.44C898.809 100.72 898.769 101.8 898.689 102.68H845.169C845.569 107.16 846.849 111.16 849.009 114.68C851.169 118.12 853.929 120.88 857.289 122.96C860.649 124.96 864.329 125.96 868.329 125.96C872.409 125.96 876.249 124.92 879.849 122.84C883.449 120.76 886.009 118.04 887.529 114.68L894.609 116.6C893.329 119.64 891.329 122.36 888.609 124.76C885.969 127.08 882.889 128.92 879.369 130.28C875.849 131.56 872.049 132.2 867.969 132.2ZM844.929 96.8H891.129C890.809 92.32 889.569 88.36 887.409 84.92C885.249 81.4 882.489 78.68 879.129 76.76C875.769 74.76 872.049 73.76 867.969 73.76C863.889 73.76 860.169 74.76 856.809 76.76C853.449 78.68 850.689 81.4 848.529 84.92C846.449 88.36 845.249 92.32 844.929 96.8Z"
        fill="#5578D1" />
    <style>
        .atom {
            --base-duration: .6s;

            animation: dance var(--base-duration) ease-in-out;
            animation-iteration-count: infinite;
        }

        .d1 {
            animation-delay: var(--base-duration);
        }

        .x2 {
            animation-duration: calc(var(--base-duration) * 2);
        }

        .x3 {
            animation-duration: calc(var(--base-duration) * 3);
        }

        .x4 {
            animation-duration: calc(var(--base-duration) * 4);
        }

        @keyframes dance {
            0 {
                transform: translateY(-5px);
            }

            50% {
                transform: translateY(5px);
            }

            100% {
                transform: translateY(0);
            }
        }
    </style>
</svg>